<?xml version="1.0" encoding="utf-8"?>
<!-- Generator: Adobe Illustrator 23.0.1, SVG Export Plug-In . SVG Version: 6.00 Build 0)  -->
<svg version="1.1" id="Layer_1" xmlns="http://www.w3.org/2000/svg" xmlns:xlink="http://www.w3.org/1999/xlink" x="0px" y="0px"
	 viewBox="0 0 550.98 388.72" style="enable-background:new 0 0 550.98 388.72;" xml:space="preserve">
<style type="text/css">
	.Arched_x0020_Green{fill:url(#SVGID_1_);stroke:#FFFFFF;stroke-width:0.25;stroke-miterlimit:1;}
	.st0{fill:#0065A4;}
	.st1{fill:#FDBB30;}
	.st2{fill:#919195;}
</style>
<linearGradient id="SVGID_1_" gradientUnits="userSpaceOnUse" x1="0" y1="595.2803" x2="0.7071" y2="594.5732">
	<stop  offset="0" style="stop-color:#20AC4B"/>
	<stop  offset="0.9831" style="stop-color:#19361A"/>
</linearGradient>
<g>
	<path class="st0" d="M208.31,171.74c0.14,17.98,7.53,27.7,26.39,27.7c6.67,0,13.5-1.45,19.73-3.92l-6.81,11.31
		c-4.78,1.59-9.72,2.46-14.8,2.46c-23.21,0-36.54-14.07-36.54-37.14c0-19,11.89-35.39,31.89-35.39c21.77,0,28.16,15.81,28.44,34.96
		H208.31z M227.44,145.78c-9.13,0-17.4,7.25-17.69,16.54h33.79C243.55,152.89,236.88,145.78,227.44,145.78z"/>
	<path class="st0" d="M363.08,208.01h-11.46c0-9.43,0.15-18.86,0.15-28.28c0-12.34,2.59-33.23-15.09-33.23
		c-6.24,0-12.48,2.03-18.14,4.65c2.33,6.24,1.88,19.43,1.88,26.39c0,10.16-0.28,20.31-0.28,30.47h-11.46
		c0-9.43,0.14-18.86,0.14-28.28c0-12.05,2.77-33.08-14.64-33.08c-6.54,0-12.77,2.17-18.71,4.5v56.86h-11.61v-69.77h11.61v9.13
		l6.09-8.71c4.49-1.31,9.29-2.02,14.07-2.02c9,0,18.14,3.04,22.05,11.88l6.96-9.7c5.08-1.31,10.15-2.33,15.37-2.33
		c25.09,0,23.35,22.77,23.35,41.19C363.37,187.84,363.08,197.85,363.08,208.01z"/>
	<path class="st0" d="M399.66,208.01v-94.45h11.59v94.45H399.66z"/>
	<path class="st0" d="M423.74,208.01v-56.96l11.46-8.17v65.13H423.74z"/>
	<path class="st1" d="M452.77,113.56l-29.04,20.67v-20.67h29.11H452.77z"/>
	<path class="st0" d="M375.71,208.01v-65.13l11.47,8.17v56.96H375.71z"/>
	<path class="st1" d="M358.09,113.56h29.09v20.67l-29.04-20.67H358.09z"/>
	<path class="st0" d="M476.97,209.46c-20.75,0-32.35-16.97-32.35-36.55c0-19.15,12.2-36.12,32.5-36.12
		c20.45,0,32.49,16.68,32.49,36.12C509.62,192.34,497.71,209.46,476.97,209.46z M476.69,145.92c-14.51,0-18.57,15.52-18.57,27.41
		c0,12.33,4.06,26.98,18.85,26.98c14.51,0,19.45-15.37,19.45-27.56C496.42,160.43,491.19,145.92,476.69,145.92z"/>
	<g>
		<path class="st2" d="M220.9,276.31c-3.24,0-5.33-1.46-5.49-4.91c-0.27-6.04,0-12.13,0-18.12h-3.08l2.37-3.34h0.71v-5.77l4.26-1.35
			v7.12h5.54v3.34h-5.54c0,3.46-0.05,6.92-0.05,10.36c0,2.97-0.98,9.49,3.29,9.49c0.97,0,1.99-0.38,2.92-0.76
			C224.3,274.53,223.92,276.31,220.9,276.31z"/>
		<path class="st2" d="M270.45,253.12c-1.94,0-3.88,0.65-5.6,1.51v21.26l-4.32-0.05v-25.94h4.32v3.29l2.48-3.24
			c1.3-0.38,2.6-0.59,3.94-0.59c1.24,0,2.64,0.1,3.77,0.7v4.31C273.53,253.61,272.12,253.12,270.45,253.12z"/>
		<path class="st2" d="M324.92,275.83c-0.27-1.14-0.38-2.33-0.38-3.52l-2.92,3.62c-1.13,0.27-2.25,0.43-3.39,0.43
			c-4.91,0-8.74-2.86-8.74-8.04c0-7.87,9.17-8.47,15.04-8.47v-1.5c0-3.67-1.4-5.5-5.23-5.5c-2.64,0-5.23,0.86-7.76,1.51l3.07-4.47
			c1.84-0.27,3.67-0.64,5.56-0.54l1.13,0.06c5.61,0.26,7.23,2.74,7.44,8.2c0.17,4.04-0.04,8.08-0.04,12.08c0,2.05,0,4.15,0.37,6.15
			H324.92z M324.54,263.79c-0.92-0.16-1.89-0.21-2.81-0.21c-3.23,0-7.49,0.81-7.49,4.9c0,2.82,2.59,4.21,5.13,4.21
			c1.78,0,3.55-0.64,5.17-1.51V263.79z"/>
		<path class="st2" d="M378.14,275.88h-4.37l-9.87-26h4.59l7.49,20.22l7.6-20.22h4.58L378.14,275.88z"/>
		<path class="st2" d="M426.88,262.34c0.05,6.69,2.8,10.3,9.8,10.3c2.49,0,5.02-0.54,7.35-1.45l-2.54,4.2
			c-1.78,0.6-3.61,0.93-5.5,0.93c-8.63,0-13.59-5.23-13.59-13.8c0-7.07,4.42-13.16,11.87-13.16c8.08,0,10.46,5.87,10.56,13H426.88z
			 M434,252.69c-3.4,0-6.47,2.69-6.59,6.15h12.57C439.98,255.33,437.5,252.69,434,252.69z"/>
		<path class="st2" d="M481.02,275.83v-37.76h4.3v37.76H481.02z"/>
	</g>
	<path class="st1" d="M116.2,195.19c24.76-0.34,61.91-34.44,61.91-61.27c0-55.01-136.74,3.12-136.74,85.97
		c0,61.94,70.19,48.02,81.53,40.14v-43.38c-12.34,5.48-41.79,4.56-41.79-20.21c0-14.98,12.86-31.45,27.82-41.95l-14.02-2.92
		l6.23-4.16c1.81-0.6,12.62-0.86,21.33-0.97c4.61-2.47,10.16-5.22,12.92-5.77c5.2-1.03,8.83-0.53,10.38,1.56
		c1,1.32-5.97,5.56-13.25,9.87l-0.23,1.03l-10.9,19.2l-4.15,0.53l2.01-12.42C102.72,172.93,96.59,195.48,116.2,195.19z"/>
</g>
</svg>
